<?xml version="1.0" encoding="UTF-8" standalone="no"?>
<svg
   width="500"
   height="500"
   version="1.1"
   id="svg15"
   sodipodi:docname="Procura-Vecto.svg"
   inkscape:version="1.4.2 (ebf0e940, 2025-05-08)"
   xmlns:inkscape="http://www.inkscape.org/namespaces/inkscape"
   xmlns:sodipodi="http://sodipodi.sourceforge.net/DTD/sodipodi-0.dtd"
   xmlns="http://www.w3.org/2000/svg"
   xmlns:svg="http://www.w3.org/2000/svg">
  <defs
     id="defs15" />
  <sodipodi:namedview
     id="namedview15"
     pagecolor="#ffffff"
     bordercolor="#000000"
     borderopacity="0.25"
     inkscape:showpageshadow="2"
     inkscape:pageopacity="0.0"
     inkscape:pagecheckerboard="0"
     inkscape:deskcolor="#d1d1d1"
     inkscape:zoom="1.5168981"
     inkscape:cx="265.34413"
     inkscape:cy="231.72289"
     inkscape:window-width="1440"
     inkscape:window-height="900"
     inkscape:window-x="0"
     inkscape:window-y="0"
     inkscape:window-maximized="0"
     inkscape:current-layer="svg15" />
  <g
     id="g43">
    <path
       style="fill:#fafcfe;stroke:none"
       d="m 266.603,148.047 c -3.561,2.611 -0.339,9.694 4.083,6.906 4.314,-2.72 0.041,-9.93 -4.083,-6.906 M 296,177 c 1.745,0.89 3.125,1.453 5,2 3.39,-6.365 9.835,-18.009 5.258,-24.956 -2.566,-3.895 -18.267,-10.75 -20.596,-3.9 -0.86,2.53 0.847,5.227 3.397,5.774 4.048,0.869 9.049,-4.017 11.873,1.231 2.656,4.935 -3.291,14.992 -4.932,19.851 m -39,3 4,-2 c -2.132,-7.736 -12.147,-22.93 2,-24 v -5 c -2.346,0.05 -4.763,0.011 -6.986,0.894 -12.536,4.973 -3.947,22.612 0.986,30.106 z"
       id="path2" />
    <path
       style="fill:#388bf4;stroke:none"
       d="m 281,246 c -1.57,-5.337 -4.857,-9.88 -7,-15 -9.348,2.618 -15.841,11.315 -26,13.482 C 225.428,249.298 203.944,228.66 203,207 l 1,4 3,-11 h 2 c 2.028,8.419 2.142,16.534 7,24 2.626,-6.258 -0.755,-13.392 0.325,-20 2.826,-17.299 17.308,-25.989 33.675,-26 -1.061,-4.478 -2.807,-16.222 -6.564,-18.971 -3.667,-2.684 -10.776,0.394 -14.436,1.785 -13.283,5.047 -24.621,15.016 -30.345,28.186 -12.468,28.688 7.918,63.841 38.345,69.532 16.238,3.038 30.931,-3.651 44,-12.532 m -23,-86 c 0.904,9.017 5.764,20.934 13.005,26.606 4.104,3.215 11.548,4.843 15.298,-0.105 2.676,-3.531 -1.432,-8.825 -3.632,-11.501 C 276.692,167.73 267.59,160.982 258,160 Z"
       id="path3" />
    <path
       style="fill:#fafcfe;stroke:none"
       d="m 36,228 c 7.3879,0 14.9181,0.431 22,-2.105 17.7997,-6.373 23.6221,-30.899 10.787,-44.802 C 60.7637,172.403 49.9661,172 39,172 32.8871,172 20.9097,169.72 17.3179,176.133 15.3992,179.559 16.0002,184.23 16,188 v 26 l 8e-4,22 c 0.0152,3.113 -0.2508,6.993 1.8572,9.566 3.184,3.887 13.976,3.768 16.4892,-0.794 C 36.9728,240.005 36,233.228 36,228 m 222,-45 c 3.36,7.65 9.255,14.414 18,15 v 21 c -4.869,-0.702 -6.827,2.702 -10.039,5.997 -3.568,3.659 -7.227,6.754 -11.961,8.77 C 239.358,240 221.255,233.332 213.565,218.985 210.482,213.233 210.863,206.13 209,200 h -2 c -4.035,8.385 -0.934,16.28 4.155,23.424 8.823,12.387 21.185,19.293 36.845,17.737 13.97,-1.388 19.971,-12.511 29,-21.161 0.075,8.334 3.23,14.959 11,18.76 3.377,1.652 13.44,5.904 13.248,-1.76 -0.174,-6.984 -7.631,-3.095 -11.233,-3.554 -2.193,-0.28 -3.811,-1.828 -5.045,-3.552 C 279.196,221.826 281,207.496 281,198 c 8.715,-0.471 15.398,-6.85 18,-15 -1.745,-0.89 -3.125,-1.453 -5,-2 -1.591,2.685 -3.007,5.561 -5.213,7.812 -10.058,10.264 -19.398,1.073 -25.787,-7.812 -1.875,0.547 -3.255,1.11 -5,2 z"
       id="path4" />
    <path
       style="fill:#fafcfe;stroke:none"
       d="m 151,192.465 c -27.762,5.003 -33.324,44.569 -6,55.067 5.083,1.952 11.656,2.042 17,1.142 29.883,-5.028 28.569,-48.289 1,-55.747 -3.888,-1.051 -8.04,-1.176 -12,-0.462 M 100,198 C 96.7084,191.972 84.8959,190.845 81.8935,198.058 80.3997,201.647 81,206.204 81,210 v 23 c 2e-4,3.686 -0.655,8.457 1.3179,11.772 2.522,4.237 13.6066,5.003 16.5031,0.794 5.828,-8.468 -3.5852,-22.902 3.832,-31.171 6.333,-7.061 16.156,3.34 20.237,-8.399 0.555,-1.595 0.925,-3.294 0.828,-4.992 C 123.011,188.648 105.901,193.168 100,198 m 226.015,-4.427 c -5.534,1.611 -5.988,6.46 -6.014,11.427 -0.049,9.265 -1.108,19.235 2.474,28 4.043,9.892 12.817,15.813 23.525,14.906 3.063,-0.26 5.975,-2.151 9,-2.093 5.423,0.105 10.198,3.903 15.941,1.584 4.668,-1.886 4.057,-7.253 4.059,-11.397 v -31 c -0.002,-4.228 0.598,-9.16 -4.059,-11.106 -1.533,-0.642 -3.294,-0.814 -4.941,-0.814 -15.005,0 -8.503,18.503 -10.228,27.919 -0.765,4.173 -4.243,7.986 -8.771,7.664 -4.672,-0.332 -7.023,-4.495 -7.696,-8.663 -1.516,-9.383 4.463,-25.953 -9.305,-26.867 -1.306,-0.086 -2.729,0.075 -3.985,0.44 M 401,198 c -2.886,-5.285 -14.249,-7.601 -17.258,-0.856 -1.423,3.192 -0.673,7.458 -0.757,10.856 -0.197,8.07 0.015,15.898 0.015,24 0,3.834 -0.923,9.207 0.742,12.772 2.218,4.747 13.358,4.508 16.4,0.794 6.505,-7.94 -2.425,-22.22 3.461,-30.456 5.688,-7.959 16.839,2.755 20.593,-9.114 0.502,-1.587 0.761,-3.327 0.655,-4.992 C 424.051,188.423 407.13,193.42 401,198 m 63,46 c 4.377,3.494 14.824,7.254 18.682,0.772 C 484.655,241.457 484,236.686 484,233 v -23 c 0,-3.741 0.7,-8.417 -0.742,-11.956 C 480.229,190.61 468.479,191.983 465,198 c -4.411,-3.365 -9.365,-5.291 -15,-4.367 -21.08,3.46 -27.806,29.761 -15.471,45.352 6.534,8.259 21.049,13.42 29.471,5.015 z"
       id="path6" />
    <path
       style="fill:#388bf4;stroke:none"
       d="m 205,212 1,1 z"
       id="path8" />
    <path
       style="fill:#388bf4;stroke:none"
       d="m 208,219 1,1 -1,-1 m 1.333,1.667 c -0.055,0.055 -0.111,1.111 0.334,0.666 0.055,-0.055 0.111,-1.111 -0.334,-0.666 M 211,223 c 0.806,2.892 1.677,4.094 4,6 -1.047,-2.466 -2.116,-4.096 -4,-6 z"
       id="path10" />
    <path
       style="fill:#fafcfe;stroke:none"
       d="m 287,227 c 2.3,7.484 8.781,0.156 13.852,4.438 4.952,4.181 2.769,12.538 -3.867,13.279 -4.12,0.46 -8.144,-2.59 -11.985,-3.717 3.569,17.311 31.454,6.115 22.721,-9.985 -1.124,-2.07 -2.71,-3.726 -4.74,-4.925 -2.084,-1.232 -4.561,-1.894 -6.981,-1.822 -3.203,0.094 -6.129,1.456 -9,2.732 z"
       id="path11" />
    <path
       style="fill:#388bf4;stroke:none"
       d="m 260,236 1,1 z"
       id="path12" />
    <path
       style="fill:#388bf4;stroke:none"
       d="m 227,238 c 1.75,1.255 2.857,1.614 5,2 -1.751,-1.255 -2.857,-1.614 -5,-2 m 24,2 c 1.659,0.406 2.242,0.309 4,0 -1.809,-0.574 -2.069,-0.465 -4,0 m -19,0 c 1.248,0.685 1.548,0.749 3,1 -1.248,-0.685 -1.548,-0.749 -3,-1 m 3,1 c 3.959,1.661 8.737,1 13,1 -3.959,-1.661 -8.737,-1 -13,-1 z"
       id="path14" />
  </g>
</svg>
